<?xml version="1.0" standalone="no"?>
<!DOCTYPE svg PUBLIC "-//W3C//DTD SVG 20010904//EN"
 "http://www.w3.org/TR/2001/REC-SVG-20010904/DTD/svg10.dtd">
<svg version="1.0" xmlns="http://www.w3.org/2000/svg"
 width="515.000000pt" height="515.000000pt" viewBox="0 0 515.000000 515.000000"
 preserveAspectRatio="xMidYMid meet">
<metadata>
Created by potrace 1.11, written by Peter Selinger 2001-2013
</metadata>
<g transform="translate(0.000000,515.000000) scale(0.100000,-0.100000)"
fill="#000000" stroke="none">
<path d="M840 4084 l0 -1068 28 26 c81 75 239 118 340 94 12 -3 30 -8 41 -10
27 -6 90 -40 130 -70 19 -14 37 -26 40 -26 3 0 5 348 5 773 l-2 772 612 -1
c336 -1 636 -4 666 -8 189 -24 358 -95 463 -195 43 -40 116 -140 136 -186 7
-16 17 -37 22 -47 11 -23 39 -133 47 -187 13 -85 6 -293 -12 -376 -10 -45 -38
-122 -64 -175 -118 -242 -346 -363 -717 -379 -20 -1 -20 -7 -20 -286 0 -157 2
-286 5 -286 3 -1 46 -2 95 -4 89 -2 225 -14 235 -20 3 -2 21 -6 40 -9 102 -16
252 -76 343 -138 235 -160 353 -418 352 -773 -2 -337 -110 -580 -330 -743
-133 -98 -282 -150 -510 -177 -64 -8 -1355 -9 -1363 -1 -3 3 -5 422 -5 931 l0
925 -34 -26 c-148 -112 -369 -112 -501 2 l-42 36 0 -1226 0 -1226 988 1 c543
0 1021 5 1062 10 130 14 163 20 260 41 660 142 1066 582 1147 1241 10 80 10
334 1 411 -21 159 -96 378 -180 521 -134 229 -328 418 -545 529 l-72 37 37 32
c311 268 494 632 495 987 0 238 -41 435 -132 625 -178 371 -492 593 -971 687
-114 22 -127 22 -1102 26 l-988 3 0 -1067z"/>
<path d="M1022 2944 c-83 -41 -132 -127 -127 -220 10 -205 254 -301 400 -158
191 189 -32 498 -273 378z"/>
</g>
</svg>
